{"title":"American Beauty *1999*[BluRay][1080p][ENG, POL]","uid":6607018,"size":11323994118,"categoryP":"video","categoryS":"hd___movies","magnet":"?xt=urn:btih:3a4cb97cff939bdbbfb21a66452f12f736ac7d06&amp;dn=American+Beauty+%2A1999%2A%5BBluRay%5D%5B1080p%5D%5BENG%2C+POL%5D&amp;tr=udp%3A%2F%2Ftracker.openbittorrent.com%3A80&amp;tr=udp%3A%2F%2Fopen.demonii.com%3A1337&amp;tr=udp%3A%2F%2Ftracker.coppersurfer.tk%3A6969&amp;tr=udp%3A%2F%2Fexodus.desync.com%3A6969","seeders":0,"leechers":1,"uploader":"albedo040","files":1,"time":1313440148,"description":"American Beauty *1999*[BluRay][1080p][ENG, POL]\n\nGeneral information:\nCountry: USA\nRelease: 8 September 1999\nGenre: Drama \nDirector: Sam Mendes\nScreenplay: Alan Ball\nOriginal Music: Thomas Newman\nCinematography by: Conrad L. Hall\nDuration: 2h 1mn\nLanguage: English, Polish\nSubtitles: English, Polish\nRating: 7.7/10 \n159737 votes\n\nCast:\nKevin Spacey ...Lester Burnham\nAnnette Bening ...Carolyn Burnham\nThora Birch ...Jane Burnham\nWes Bentley ...Ricky Fitts\nMena Suvari ...Angela Hayes\nChris Cooper ...Col. Frank Fitts, USMC\nPeter Gallagher ...Buddy Kane\nAllison Janney ...Barbara Fitts\nScott Bakula ...Jim Olmeyer\nSam Robards ...Jim Berkley\nBarry Del Sherman ...Brad Dupree\nAra Celi ...Sale House Woman 1\nJohn Cho ...Sale House Man 1\nFort Atkinson ...Sale House Man 2\nSue Casey ...Sale House Woman 2\n\nPlot:\nLester Burnham, a depressed suburban father in a mid-life crisis, decides to turn his hectic life around after developing an infatuation for his daughter's attractive friend.\n\nSpecifications:\nGeneral\nFormat                           : Matroska\nFormat version                   : Version 2\nOverall bit rate                 : 12.4 Mbps\n\nVideo\nFormat                           : AVC\nFormat/Info                      : Advanced Video Codec\nFormat profile                   : &lt;a class=&quot;__cf_email__&quot; href=&quot;/cdn-cgi/l/email-protection&quot; data-cfemail=&quot;2e664749466e621a001f&quot;&gt;[email&amp;#160;protected]&lt;/a&gt;&lt;script cf-hash='f9e31' type=&quot;text/javascript&quot;&gt;\n/* &lt;![CDATA[ */!function(){try{var t=&quot;currentScript&quot;in document?document.currentScript:function(){for(var t=document.getElementsByTagName(&quot;script&quot;),e=t.length;e--;)if(t[e].getAttribute(&quot;cf-hash&quot;))return t[e]}();if(t&amp;&amp;t.previousSibling){var e,r,n,i,c=t.previousSibling,a=c.getAttribute(&quot;data-cfemail&quot;);if(a){for(e=&quot;&quot;,r=parseInt(a.substr(0,2),16),n=2;a.length-n;n+=2)i=parseInt(a.substr(n,2),16)^r,e+=String.fromCharCode(i);e=document.createTextNode(e),c.parentNode.replaceChild(e,c)}}}catch(u){}}();/* ]]&gt; */&lt;/script&gt;\nFormat settings, CABAC           : Yes\nFormat settings, ReFrames        : 5 frames\nMuxing mode                      : Header stripping\nCodec ID                         : V_MPEG4/ISO/AVC\nBit rate                         : 10.7 Mbps\nWidth                            : 1 920 pixels\nHeight                           : 816 pixels\nDisplay aspect ratio             : 2.35:1\nFrame rate                       : 23.976 fps\n\nAudio 1\nFormat                           : DTS\nFormat/Info                      : Digital Theater Systems\nMuxing mode                      : Header stripping\nCodec ID                         : A_DTS\nBit rate mode                    : Constant\nBit rate                         : 1 510 Kbps\nChannel(s)                       : 6 channels\nChannel positions                : Front: L C R, Side: L R, LFE\nSampling rate                    : 48.0 KHz\nBit depth                        : 24 bits\nCompression mode                 : Lossy\nStream size                      : 1.28 GiB (12%)\nTitle                            : English\nLanguage                         : English\n\nAudio 2\nFormat                           : AC-3\nFormat/Info                      : Audio Coding 3\nMode extension                   : CM (complete main)\nMuxing mode                      : Header stripping\nCodec ID                         : A_AC3\nBit rate mode                    : Constant\nBit rate                         : 192 Kbps\nChannel(s)                       : 2 channels\nChannel positions                : Front: L R\nSampling rate                    : 48.0 KHz\nBit depth                        : 16 bits\nCompression mode                 : Lossy\nStream size                      : 167 MiB (2%)\nTitle                            : Polish\nLanguage                         : Polish\n\nText 1\nFormat                           : UTF-8\nCodec ID                         : S_TEXT/UTF8\nCodec ID/Info                    : UTF-8 Plain Text\nTitle                            : English\nLanguage                         : English\n\nText 2\nFormat                           : UTF-8\nCodec ID                         : S_TEXT/UTF8\nCodec ID/Info                    : UTF-8 Plain Text\nTitle                            : Polish\nLanguage                         : Polish\n","torrent":{"xt":"urn:btih:3a4cb97cff939bdbbfb21a66452f12f736ac7d06","amp;dn":"American+Beauty+%2A1999%2A%5BBluRay%5D%5B1080p%5D%5BENG%2C+POL%5D","amp;tr":["udp%3A%2F%2Ftracker.openbittorrent.com%3A80","udp%3A%2F%2Fopen.demonii.com%3A1337","udp%3A%2F%2Ftracker.coppersurfer.tk%3A6969","udp%3A%2F%2Fexodus.desync.com%3A6969"],"infoHash":"3a4cb97cff939bdbbfb21a66452f12f736ac7d06","infoHashBuffer":{"type":"Buffer","data":[58,76,185,124,255,147,155,219,191,178,26,102,69,47,18,247,54,172,125,6]},"announce":[],"urlList":[]}}